<?xml version="1.0" encoding="utf-8"?>
<!-- Generator: Adobe Illustrator 16.0.0, SVG Export Plug-In . SVG Version: 6.00 Build 0)  -->
<!DOCTYPE svg PUBLIC "-//W3C//DTD SVG 1.1//EN" "http://www.w3.org/Graphics/SVG/1.1/DTD/svg11.dtd">
<svg version="1.1" id="Layer_2" xmlns="http://www.w3.org/2000/svg" xmlns:xlink="http://www.w3.org/1999/xlink" x="0px" y="0px"
	 width="960px" height="1080px" viewBox="0 0 960 1080" enable-background="new 0 0 960 1080" xml:space="preserve">
<path fill="#EE9601" d="M791.083,211.332c-7.836-5.688-17.916-7.293-27.131-4.32l-197.855,63.936l-197.948-66.355
	c-6.484-2.286-13.559-2.286-20.043,0L170.985,270.17c-11.905,4.386-19.807,15.738-19.785,28.426v509.757
	c0.139,16.699,13.789,30.125,30.49,29.986c3.607-0.029,7.18-0.705,10.549-1.994l167.443-65.059l197.256,61.604
	c5.637,1.686,11.643,1.686,17.279,0l207.361-60.48c12.902-3.764,21.771-15.59,21.771-29.031V235.61
	C803.337,226.031,798.786,217.025,791.083,211.332z M328.319,552.955l-116.64,45.531V319.505l116.64-43.2V552.955z M535.685,762.646
	L388.799,716.77V614.73l146.885,45.879V762.646z M535.685,597.191l-146.885-45.879V274.836l146.885,49.162V597.191z
	 M743.044,720.656l-146.881,43.201V661.041l146.881-43.201V720.656z"/>
<polygon fill="#FFFFFF" points="168.755,310.667 190.421,824 398.755,765.667 553.755,807.333 595.421,807.333 798.755,760.667 
	727.088,279 535.421,302.333 360.42,249 "/>
<path fill="#EFB607" d="M795.533,225.678c-7.836-5.688-17.916-7.293-27.131-4.32l-197.855,63.936l-197.943-66.355
	c-6.484-2.286-13.559-2.286-20.043,0l-177.121,65.578c-11.905,4.386-19.807,15.738-19.785,28.426v509.76
	c0.139,16.699,13.789,30.125,30.49,29.986c3.607-0.029,7.18-0.705,10.549-1.994l167.443-65.059l197.252,61.604
	c5.637,1.686,11.643,1.686,17.279,0l207.361-60.48c12.902-3.764,21.771-15.59,21.771-29.031V249.956
	C807.787,240.377,803.236,231.371,795.533,225.678z M332.773,567.304l-116.64,45.531V333.851l116.64-43.2V567.304z M540.135,776.995
	l-146.881-45.877V629.079l146.881,45.879V776.995z M540.135,611.54l-146.881-45.879V289.182l146.881,49.162V611.54z
	 M747.494,735.005l-146.881,43.201V675.39l146.881-43.201V735.005z"/>
<path fill="#EE9601" d="M568.752,286.359l-196.148-65.754c-3.932-1.386-8.081-1.918-12.184-1.623v569.765l3.717-1.445
	l197.252,61.604c2.406,0.721,4.88,1.113,7.363,1.219V286.359z M540.135,778.661l-146.881-45.877V630.745l146.881,45.879V778.661z
	 M540.135,613.206l-146.881-45.879V290.848l146.881,49.162V613.206z"/>
<path fill="#EFC84A" d="M796.533,225.344c-7.836-5.688-17.916-7.293-27.131-4.32L571.547,284.96l-2.795-0.937v564.058
	c3.662,0.277,7.362-0.113,10.916-1.176l207.361-60.48c12.902-3.764,21.771-15.59,21.771-29.031V249.623
	C808.787,240.043,804.236,231.037,796.533,225.344z M748.494,734.671l-146.881,43.201V675.056l146.881-43.201V734.671z"/>
<ellipse fill="#FFFFFF" cx="690.443" cy="449.833" rx="48.333" ry="80.833"/>
</svg>
