<?xml version="1.0" encoding="utf-8"?>
<!-- Generator: Adobe Illustrator 16.0.0, SVG Export Plug-In . SVG Version: 6.00 Build 0)  -->
<!DOCTYPE svg PUBLIC "-//W3C//DTD SVG 1.1//EN" "http://www.w3.org/Graphics/SVG/1.1/DTD/svg11.dtd">
<svg version="1.1" id="Layer_2" xmlns="http://www.w3.org/2000/svg" xmlns:xlink="http://www.w3.org/1999/xlink" x="0px" y="0px"
	 width="636.667px" height="638.334px" viewBox="0 0 636.667 638.334" enable-background="new 0 0 636.667 638.334"
	 xml:space="preserve">
<g>
	<path fill="#EE9601" d="M296.508,196.213v226.636c0,4.77,3.871,8.64,8.641,8.64h17.279c4.77,0,8.641-3.87,8.641-8.64V196.213
		c34.621-7.871,60.48-38.768,60.48-75.764c0-42.95-34.811-77.76-77.76-77.76s-77.76,34.811-77.76,77.76
		C236.029,157.445,261.889,188.351,296.508,196.213z M287.869,77.249c9.547,0,17.279,7.733,17.279,17.28
		c0,9.539-7.732,17.28-17.279,17.28s-17.281-7.741-17.281-17.28C270.588,84.981,278.322,77.249,287.869,77.249z M356.988,336.448
		h-8.641v-34.56h43.201C391.549,320.948,376.049,336.448,356.988,336.448z M356.988,353.729c28.59,0,51.84-23.25,51.84-51.84h81.762
		c7.826,0,14.678,5.262,16.691,12.83l15.016,56.29H348.348v-17.28H356.988z M279.229,336.448H114.49l5.797-21.729
		c2.021-7.568,8.865-12.83,16.701-12.83h142.24V336.448z M327.924,517.889H66.105l9.219-34.56h65.596
		c30.965,0,56.16-25.194,56.16-56.16c0-21.437,17.443-38.88,38.879-38.88h43.27v34.56c0,14.291,11.629,25.92,25.92,25.92h17.279
		c14.291,0,25.92-11.629,25.92-25.92v-34.56h178.564l13.824,51.84H405.684c-26.197,0-47.52,21.323-47.52,47.52
		C358.164,504.324,344.59,517.889,327.924,517.889z M550.498,561.089H77.078c-11.353,0-19.621-10.766-16.691-21.729l1.113-4.19
		h266.908c26.516,0,46.283-21.894,47.045-48.401c0.475-16.27,13.85-29.359,30.23-29.359H545.34l21.852,81.951
		C570.121,550.323,561.852,561.089,550.498,561.089z M141.697,466.049H79.93l29.955-112.32h169.344v17.28h-43.27
		c-30.75,0-55.814,24.849-56.16,55.521C179.557,448.129,163.307,466.049,141.697,466.049z"/>
</g>
</svg>
